<?xml version="1.0" encoding="iso-8859-1"?>
<!-- Generator: Adobe Illustrator 19.0.0, SVG Export Plug-In . SVG Version: 6.00 Build 0)  -->
<svg version="1.1" id="Layer_1" xmlns="http://www.w3.org/2000/svg" xmlns:xlink="http://www.w3.org/1999/xlink" x="0px" y="0px"
	 viewBox="0 0 512 512" style="enable-background:new 0 0 512 512;" xml:space="preserve">
<polygon style="fill:#FF8564;" points="504.163,412.735 7.837,412.735 7.837,99.265 369.894,99.265 369.894,203.755 
	313.469,203.755 313.469,308.245 504.163,308.245 "/>
<rect x="248.163" y="91.429" width="15.673" height="15.673"/>
<path d="M321.306,300.408v-88.816h56.424V91.429h-95.086v15.673h79.412v88.816H173.976v-88.816h55.902V91.429H0v329.143h512V300.408
	H321.306z M384,316.082v88.816H183.641v-88.816H384z M305.633,300.408H112.327v-88.816h193.306V300.408z M15.673,107.102h142.629
	v88.816h-128v15.673h66.351v88.816h-80.98V107.102z M15.673,316.082h152.294v88.816H15.673V316.082z M496.327,404.898h-96.653
	v-88.816h96.653V404.898z"/>
<g>
</g>
<g>
</g>
<g>
</g>
<g>
</g>
<g>
</g>
<g>
</g>
<g>
</g>
<g>
</g>
<g>
</g>
<g>
</g>
<g>
</g>
<g>
</g>
<g>
</g>
<g>
</g>
<g>
</g>
</svg>
