<?xml version="1.0" encoding="iso-8859-1"?>
<!-- Generator: Adobe Illustrator 19.0.0, SVG Export Plug-In . SVG Version: 6.00 Build 0)  -->
<svg version="1.1" id="Layer_1" xmlns="http://www.w3.org/2000/svg" xmlns:xlink="http://www.w3.org/1999/xlink" x="0px" y="0px"
	 viewBox="0 0 512 512" style="enable-background:new 0 0 512 512;" xml:space="preserve">
<rect x="149.918" y="73.218" style="fill:#FFC084;" width="294.847" height="430.938"/>
<g>
	<rect x="184.383" y="107.211" style="fill:#FFFFFF;" width="225.929" height="91.658"/>
	<rect x="184.383" y="417.863" style="fill:#FFFFFF;" width="52.298" height="52.298"/>
	<rect x="274.336" y="417.863" style="fill:#FFFFFF;" width="52.298" height="52.298"/>
	<rect x="184.383" y="331.048" style="fill:#FFFFFF;" width="52.298" height="52.298"/>
</g>
<rect x="358.013" y="331.048" style="fill:#FF8564;" width="52.298" height="139.113"/>
<g>
	<rect x="274.336" y="331.048" style="fill:#FFFFFF;" width="52.298" height="52.298"/>
	<rect x="184.383" y="244.233" style="fill:#FFFFFF;" width="52.298" height="52.298"/>
	<rect x="358.013" y="244.233" style="fill:#FFFFFF;" width="52.298" height="52.298"/>
	<rect x="274.336" y="244.233" style="fill:#FFFFFF;" width="52.298" height="52.298"/>
</g>
<circle style="fill:#FF8564;" cx="147.774" cy="88.384" r="80.539"/>
<path style="fill:#FFFFFF;" d="M165.845,68.521c-0.377-0.439-1.083-0.973-2.118-1.601c-1.036-0.625-2.259-1.271-3.671-1.929
	c-1.412-0.66-2.965-1.254-4.66-1.79c-1.694-0.531-3.452-0.893-5.272-1.083v16.286l2.353,0.566c3.262,0.879,6.228,1.82,8.896,2.823
	c2.666,1.005,4.925,2.259,6.778,3.765c1.85,1.507,3.278,3.312,4.283,5.414c1.003,2.104,1.506,4.692,1.506,7.767
	c0,3.451-0.612,6.4-1.836,8.848c-1.224,2.448-2.887,4.458-4.989,6.025c-2.103,1.569-4.551,2.746-7.343,3.53
	c-2.793,0.784-5.728,1.238-8.802,1.365v10.355h-5.648v-10.449c-4.393-0.315-8.676-1.207-12.85-2.682
	c-4.174-1.473-7.955-3.404-11.343-5.789l5.742-11.201c0.501,0.502,1.365,1.16,2.589,1.976c1.224,0.817,2.698,1.616,4.424,2.4
	c1.725,0.787,3.639,1.522,5.742,2.212c2.101,0.692,4.283,1.162,6.543,1.412V90.549c-0.565-0.127-1.13-0.268-1.694-0.425
	c-0.565-0.155-1.13-0.328-1.694-0.517c-3.201-0.879-5.978-1.837-8.331-2.872s-4.316-2.259-5.884-3.671
	c-1.569-1.412-2.746-3.042-3.53-4.895c-0.786-1.851-1.177-4.064-1.177-6.638c0-3.136,0.548-5.945,1.647-8.425
	c1.097-2.478,2.603-4.597,4.519-6.353c1.914-1.757,4.189-3.138,6.825-4.143c2.636-1.003,5.46-1.631,8.472-1.882v-9.602h5.648v9.508
	c4.142,0.315,7.955,1.16,11.438,2.542c3.483,1.381,6.543,2.981,9.178,4.801L165.845,68.521z M137.228,69.463
	c0,2.133,0.736,3.751,2.212,4.848c1.474,1.099,3.718,2.086,6.731,2.964v-15.25C140.207,62.402,137.228,64.882,137.228,69.463z
	 M160.103,100.057c0-2.133-0.88-3.798-2.636-4.99c-1.757-1.191-4.205-2.29-7.343-3.294v15.154
	C156.776,106.74,160.103,104.449,160.103,100.057z"/>
<path d="M176.534,478.006h67.988v-67.988h-67.988V478.006z M192.223,425.708h36.609v36.609h-36.609V425.708z"/>
<path d="M266.487,478.006h67.988v-67.988h-67.988V478.006z M282.176,425.708h36.609v36.609h-36.609V425.708z"/>
<path d="M176.534,391.191h67.988v-67.988h-67.988V391.191z M192.223,338.893h36.609v36.609h-36.609V338.893z"/>
<path d="M266.487,391.191h67.988v-67.988h-67.988V391.191z M282.176,338.893h36.609v36.609h-36.609V338.893z"/>
<path d="M244.522,236.388h-67.988v67.988h67.988V236.388z M228.832,288.686h-36.609v-36.609h36.609V288.686z"/>
<path d="M418.152,236.388h-67.988v67.988h67.988V236.388z M402.462,288.686h-36.609v-36.609h36.609V288.686z"/>
<path d="M334.475,236.388h-67.988v67.988h67.988V236.388z M318.785,288.686h-36.609v-36.609h36.609V288.686z"/>
<rect x="142.073" y="191.412" width="15.689" height="15.689"/>
<path d="M233.097,65.373C222.943,27.762,188.546,0,147.77,0C99.035,0,59.386,39.648,59.386,88.384s39.649,88.384,88.384,88.384
	c10.07,0,19.741-1.715,28.764-4.831v34.778h241.618V99.367H235.448c0.449-3.601,0.707-7.261,0.707-10.983
	c0-2.467-0.128-4.905-0.327-7.322h201.097v415.248H157.762V225.406h-15.689V512h310.542V65.373H233.097z M75.075,88.384
	c0-40.083,32.611-72.695,72.695-72.695s72.695,32.611,72.695,72.695s-32.611,72.695-72.695,72.695S75.075,128.468,75.075,88.384z
	 M402.462,115.056v75.969H192.223v-26.299c18.75-10.961,33.127-28.611,39.808-49.671
	C232.032,115.056,402.462,115.056,402.462,115.056z"/>
<rect x="350.168" y="404.266" width="15.689" height="15.689"/>
<polygon points="350.164,478.006 418.152,478.006 418.152,323.203 350.164,323.203 350.164,385.438 365.854,385.438 
	365.854,338.893 402.462,338.893 402.462,462.317 365.854,462.317 365.854,438.259 350.164,438.259 "/>
<g>
</g>
<g>
</g>
<g>
</g>
<g>
</g>
<g>
</g>
<g>
</g>
<g>
</g>
<g>
</g>
<g>
</g>
<g>
</g>
<g>
</g>
<g>
</g>
<g>
</g>
<g>
</g>
<g>
</g>
</svg>
