<?xml version="1.0" encoding="iso-8859-1"?>
<!-- Generator: Adobe Illustrator 19.0.0, SVG Export Plug-In . SVG Version: 6.00 Build 0)  -->
<svg version="1.1" id="Layer_1" xmlns="http://www.w3.org/2000/svg" xmlns:xlink="http://www.w3.org/1999/xlink" x="0px" y="0px"
	 viewBox="0 0 512 512" style="enable-background:new 0 0 512 512;" xml:space="preserve">
<polyline style="fill:#FFC084;" points="303.464,451.395 417.589,451.395 417.589,60.605 303.464,60.605 "/>
<polygon style="fill:#FF8564;" points="303.464,502.117 94.412,451.395 94.412,60.605 303.464,9.883 "/>
<circle style="fill:#FFFFFF;" cx="255.765" cy="277.454" r="15.233"/>
<polygon points="325.502,52.833 325.502,68.377 409.816,68.377 409.816,443.623 400.633,443.623 400.633,117.138 385.089,117.138 
	385.089,443.623 325.502,443.623 325.502,459.167 425.361,459.167 425.361,52.833 "/>
<rect x="86.644" y="355.486" width="15.544" height="15.544"/>
<polygon points="86.639,337.866 102.184,337.866 102.184,66.717 295.693,19.766 295.693,492.234 102.184,445.283 102.184,389.68 
	86.639,389.68 86.639,457.506 311.237,512 311.237,0 86.639,54.494 "/>
<path d="M278.767,277.451c0-12.685-10.32-23.005-23.005-23.005c-12.685,0-23.005,10.32-23.005,23.005s10.32,23.005,23.005,23.005
	C268.447,300.458,278.767,290.136,278.767,277.451z M248.299,277.451c0-4.114,3.347-7.461,7.461-7.461
	c4.114,0,7.461,3.347,7.461,7.461s-3.347,7.461-7.461,7.461C251.648,284.913,248.299,281.565,248.299,277.451z"/>
<rect x="385.093" y="83.98" width="15.544" height="15.544"/>
<g>
</g>
<g>
</g>
<g>
</g>
<g>
</g>
<g>
</g>
<g>
</g>
<g>
</g>
<g>
</g>
<g>
</g>
<g>
</g>
<g>
</g>
<g>
</g>
<g>
</g>
<g>
</g>
<g>
</g>
</svg>
