<?xml version="1.0" encoding="iso-8859-1"?>
<!-- Generator: Adobe Illustrator 19.0.0, SVG Export Plug-In . SVG Version: 6.00 Build 0)  -->
<svg version="1.1" id="Layer_1" xmlns="http://www.w3.org/2000/svg" xmlns:xlink="http://www.w3.org/1999/xlink" x="0px" y="0px"
	 viewBox="0 0 512 512" style="enable-background:new 0 0 512 512;" xml:space="preserve">
<polyline style="fill:#FFC084;" points="339.062,212.99 386.151,212.99 395.472,196.609 424.861,196.609 437.584,174.248 
	424.861,151.886 395.472,151.886 386.151,135.505 339.062,135.505 "/>
<polygon style="fill:#FF8564;" points="7.861,117.65 7.861,394.35 112.671,394.35 112.671,288.491 281.417,288.491 339.062,230.845 
	339.062,117.65 "/>
<polyline style="fill:#FFC084;" points="7.861,196.258 57.122,196.258 57.122,360.811 7.861,360.811 "/>
<polygon style="fill:#FFFFFF;" points="339.062,117.65 299.234,117.65 299.234,270.673 339.062,230.845 "/>
<rect x="291.374" y="184.467" width="15.722" height="15.722"/>
<path d="M0,402.211h120.532V296.352h164.14l62.251-62.251V109.789H0V402.211z M291.374,125.511v40.614h15.722v-40.614h24.106V227.59
	l-24.106,24.106v-32.642h-15.722v48.364l-13.212,13.212H104.811v105.859H15.722v-17.818h49.261V188.397H15.722v-62.886H291.374z
	 M15.722,320.144V303.06h14.149v-15.722H15.722v-17.084h14.149v-15.722H15.722v-17.084h14.149v-15.722H15.722v-17.608h33.539V352.95
	H15.722v-17.084h14.149v-15.722L15.722,320.144L15.722,320.144z"/>
<polygon points="512,166.387 442.156,166.387 429.433,144.026 400.043,144.026 390.724,127.645 354.784,127.645 354.784,143.366 
	381.579,143.366 390.899,159.747 420.291,159.747 428.54,174.248 420.291,188.748 390.899,188.748 381.579,205.129 354.784,205.129 
	354.784,220.851 390.724,220.851 400.043,204.47 429.433,204.47 442.156,182.108 512,182.108 "/>
<rect x="210.145" y="246.043" width="52.405" height="15.722"/>
<rect x="210.145" y="211.455" width="52.405" height="15.722"/>
<rect x="210.145" y="176.868" width="52.405" height="15.722"/>
<path d="M126.297,327.795v15.722c22.828,0,41.4-18.572,41.4-41.4h-15.722C151.975,316.276,140.457,327.795,126.297,327.795z"/>
<g>
</g>
<g>
</g>
<g>
</g>
<g>
</g>
<g>
</g>
<g>
</g>
<g>
</g>
<g>
</g>
<g>
</g>
<g>
</g>
<g>
</g>
<g>
</g>
<g>
</g>
<g>
</g>
<g>
</g>
</svg>
