<?xml version="1.0" encoding="iso-8859-1"?>
<!-- Generator: Adobe Illustrator 19.0.0, SVG Export Plug-In . SVG Version: 6.00 Build 0)  -->
<svg version="1.1" id="Layer_1" xmlns="http://www.w3.org/2000/svg" xmlns:xlink="http://www.w3.org/1999/xlink" x="0px" y="0px"
	 viewBox="0 0 512 512" style="enable-background:new 0 0 512 512;" xml:space="preserve">
<polyline style="fill:#FF8564;" points="82.547,456.62 82.547,55.38 429.453,55.38 429.453,456.62 "/>
<polyline style="fill:#FFFFFF;" points="134.792,456.62 134.792,107.624 377.208,107.624 377.208,456.62 "/>
<path d="M437.29,47.543H74.71v401.241H34.482v15.673h443.037v-15.673H437.29V47.543z M90.384,63.216h331.233v385.567h-36.571V99.788
	h-258.09v348.996H90.384V63.216z M263.837,115.461h105.535v333.322H263.837V115.461z M248.163,448.784H142.629V115.461h105.535
	V448.784z"/>
<rect x="395.494" y="231.184" width="15.673" height="15.673"/>
<rect x="395.494" y="265.143" width="15.673" height="15.673"/>
<rect x="213.943" y="73.665" width="15.673" height="15.673"/>
<rect x="247.902" y="73.665" width="15.673" height="15.673"/>
<rect x="282.384" y="73.665" width="15.673" height="15.673"/>
<rect x="496.327" y="448.784" width="15.673" height="15.673"/>
<rect y="448.784" width="15.673" height="15.673"/>
<g>
</g>
<g>
</g>
<g>
</g>
<g>
</g>
<g>
</g>
<g>
</g>
<g>
</g>
<g>
</g>
<g>
</g>
<g>
</g>
<g>
</g>
<g>
</g>
<g>
</g>
<g>
</g>
<g>
</g>
</svg>
