<?xml version="1.0" encoding="iso-8859-1"?>
<!-- Generator: Adobe Illustrator 19.0.0, SVG Export Plug-In . SVG Version: 6.00 Build 0)  -->
<svg version="1.1" id="Layer_1" xmlns="http://www.w3.org/2000/svg" xmlns:xlink="http://www.w3.org/1999/xlink" x="0px" y="0px"
	 viewBox="0 0 512 512" style="enable-background:new 0 0 512 512;" xml:space="preserve">
<path style="fill:#FFFFFF;" d="M232.442,118.577c4.803,0,9.522,0.358,14.135,1.041V40.834c0-7.807-6.328-14.135-14.135-14.135
	s-14.135,6.328-14.135,14.135v78.783C222.92,118.935,227.639,118.577,232.442,118.577z"/>
<rect x="152.867" y="52.352" style="fill:#FFC084;" width="159.149" height="28.27"/>
<path style="fill:#FF8564;" d="M341.299,176.687h-20.757c-14.639-34.17-48.572-58.11-88.1-58.11s-73.46,23.94-88.099,58.11H7.853
	v70.474h134.542c13.387,36.768,48.65,63.023,90.047,63.023s76.659-26.257,90.047-63.023h18.81c39.677,0,71.958,32.28,71.958,71.959
	v40.8h70.473v-40.8C483.73,240.581,419.836,176.687,341.299,176.687z"/>
<path style="fill:#FFC084;" d="M486.31,449.216c0,19.929-16.156,36.085-36.085,36.085s-36.085-16.156-36.085-36.085
	s36.085-61.289,36.085-61.289S486.31,429.286,486.31,449.216z"/>
<path d="M491.583,352.065v-32.95c0-82.865-67.416-150.281-150.281-150.281H325.54c-13.77-28.031-39.83-48.972-71.109-55.756V88.474
	h65.44V44.499h-65.441v-3.665c0-12.125-9.864-21.988-21.988-21.988s-21.988,9.863-21.988,21.988v3.665h-65.44v43.975h65.44v24.604
	c-31.28,6.784-57.34,27.724-71.109,55.756H0v86.181h137.082c4.183,9.819,9.884,19.007,16.976,27.196l11.873-10.282
	c-13.827-15.964-21.44-36.402-21.44-57.549c0-48.497,39.455-87.951,87.951-87.951s87.951,39.454,87.951,87.951
	s-39.455,87.951-87.951,87.951c-9.714,0-19.256-1.571-28.359-4.67l-5.061,14.868c10.736,3.654,21.98,5.507,33.42,5.507
	c42.741,0,79.52-26.004,95.355-63.021h13.505c35.345,0,64.101,28.755,64.101,64.099v32.95h-20.093v15.706H512v-15.706
	L491.583,352.065L491.583,352.065z M15.706,239.31v-54.77H133.17c-2.847,9.455-4.385,19.471-4.385,29.84
	c0,8.466,1.06,16.83,3.067,24.93H15.706z M226.16,40.834c0-3.465,2.818-6.282,6.282-6.282s6.282,2.818,6.282,6.282v3.665H226.16
	V40.834z M160.72,60.204h143.444v12.564H160.72V60.204z M226.16,110.92V88.474h12.564v22.445c-2.079-0.125-4.172-0.196-6.282-0.196
	S228.239,110.795,226.16,110.92z M341.302,239.31h-8.241c1.98-7.989,3.037-16.338,3.037-24.93c0-10.37-1.538-20.386-4.385-29.84
	h9.589c74.205,0,134.575,60.37,134.575,134.575v32.95h-54.77v-32.95C421.107,275.11,385.307,239.31,341.302,239.31z"/>
<path d="M166.167,294.085c4.93,4.104,10.266,7.766,15.856,10.884l7.651-13.717c-4.744-2.646-9.273-5.755-13.459-9.238
	L166.167,294.085z"/>
<path d="M456.142,382.763l-5.917-6.782l-5.917,6.783c-0.379,0.436-9.397,10.799-18.549,23.818
	c-13.103,18.635-19.472,32.582-19.472,42.634c0,24.226,19.71,43.937,43.938,43.937c24.227,0,43.938-19.71,43.938-43.938
	c0-10.054-6.369-23.999-19.472-42.634C465.539,393.564,456.522,383.199,456.142,382.763z M450.225,477.448
	c-15.567,0-28.232-12.665-28.232-28.232c0-10.625,15.495-33.29,28.232-49.061c12.737,15.769,28.232,38.435,28.232,49.061
	C478.457,464.783,465.792,477.448,450.225,477.448z"/>
<g>
</g>
<g>
</g>
<g>
</g>
<g>
</g>
<g>
</g>
<g>
</g>
<g>
</g>
<g>
</g>
<g>
</g>
<g>
</g>
<g>
</g>
<g>
</g>
<g>
</g>
<g>
</g>
<g>
</g>
</svg>
