<?xml version="1.0" encoding="iso-8859-1"?>
<!-- Generator: Adobe Illustrator 19.0.0, SVG Export Plug-In . SVG Version: 6.00 Build 0)  -->
<svg version="1.1" id="Layer_1" xmlns="http://www.w3.org/2000/svg" xmlns:xlink="http://www.w3.org/1999/xlink" x="0px" y="0px"
	 viewBox="0 0 512 512" style="enable-background:new 0 0 512 512;" xml:space="preserve">
<polygon style="fill:#FF8564;" points="376.581,207.777 264.377,207.777 313.894,100.313 209.432,100.313 135.419,275.839 
	239.301,275.839 208.461,411.692 "/>
<rect x="370.169" y="387.193" transform="matrix(0.7071 0.7071 -0.7071 0.7071 395.0283 -163.6234)" width="49.712" height="15.673"/>
<rect x="423.614" y="423.637" transform="matrix(0.7071 0.7071 -0.7071 0.7071 431.4712 -178.7169)" width="15.705" height="15.673"/>
<rect x="427.75" y="248.166" width="84.25" height="15.673"/>
<rect x="399.391" y="62.636" transform="matrix(-0.7071 -0.7071 0.7071 -0.7071 621.1034 466.7912)" width="15.673" height="84.249"/>
<rect x="62.645" y="96.936" transform="matrix(-0.7071 -0.7071 0.7071 -0.7071 104.7679 252.9407)" width="84.249" height="15.673"/>
<rect y="248.166" width="84.25" height="15.673"/>
<rect x="96.926" y="365.114" transform="matrix(0.7071 0.7071 -0.7071 0.7071 318.6452 45.1993)" width="15.673" height="84.249"/>
<rect x="158.869" y="193.713" transform="matrix(-0.9214 -0.3885 0.3885 -0.9214 241.9689 452.2275)" width="15.673" height="15.874"/>
<polygon points="393.199,199.941 276.616,199.941 326.134,92.476 204.232,92.476 170.489,172.5 184.93,178.59 214.632,108.15 
	301.654,108.15 252.137,215.614 359.964,215.614 223.41,381.241 249.117,268.002 147.228,268.002 162.9,230.835 148.458,224.746 
	123.608,283.676 229.486,283.676 193.512,442.144 "/>
<g>
</g>
<g>
</g>
<g>
</g>
<g>
</g>
<g>
</g>
<g>
</g>
<g>
</g>
<g>
</g>
<g>
</g>
<g>
</g>
<g>
</g>
<g>
</g>
<g>
</g>
<g>
</g>
<g>
</g>
</svg>
