<?xml version="1.0" encoding="iso-8859-1"?>
<!-- Generator: Adobe Illustrator 19.0.0, SVG Export Plug-In . SVG Version: 6.00 Build 0)  -->
<svg version="1.1" id="Layer_1" xmlns="http://www.w3.org/2000/svg" xmlns:xlink="http://www.w3.org/1999/xlink" x="0px" y="0px"
	 viewBox="0 0 504.399 504.399" style="enable-background:new 0 0 504.399 504.399;" xml:space="preserve">
<g>
	<rect x="7.598" y="172.012" style="fill:#FFC084;" width="488.958" height="23.676"/>
	<rect x="7.598" y="285.244" style="fill:#FFC084;" width="488.958" height="23.676"/>
</g>
<g>
	<rect x="34.508" y="97.865" style="fill:#FF8564;" width="49.513" height="285.14"/>
	<rect x="111.709" y="97.876" style="fill:#FF8564;" width="49.513" height="285.14"/>
	<rect x="188.522" y="97.886" style="fill:#FF8564;" width="49.513" height="285.14"/>
	<rect x="265.87" y="97.906" style="fill:#FF8564;" width="49.513" height="285.14"/>
	<rect x="342.93" y="97.917" style="fill:#FF8564;" width="49.513" height="285.14"/>
	<rect x="420.133" y="97.927" style="fill:#FF8564;" width="49.513" height="285.14"/>
</g>
<g>
	<circle style="fill:#FFC084;" cx="97.864" cy="385.434" r="21.102"/>
	<circle style="fill:#FFC084;" cx="406.288" cy="385.434" r="21.102"/>
</g>
<path d="M504.399,203.411v-39.117h-26.908V90.199h-64.954v74.094h-12.25V90.189h-64.954v74.104h-12.104V90.18h-64.956v74.115
	h-12.391V90.168h-64.956v74.127h-11.86V90.158h-64.954v74.136H91.873V90.148H26.918v74.146H0v39.117h26.918v74.116H0v39.117h26.918
	v74.086h42.747c2.497,13.368,14.245,23.521,28.326,23.521c14.078,0,25.823-10.148,28.324-23.511h42.751v-74.095h11.86v74.104h64.956
	v-74.104h12.391v74.117h64.955v-74.117h12.104v74.127h42.764c2.513,13.348,14.251,23.48,28.318,23.48
	c14.063,0,25.799-10.127,28.316-23.47h42.761v-74.137h26.908v-39.117h-26.908v-74.116L504.399,203.411L504.399,203.411z
	 M488.958,179.735v8.235h-11.467v-8.235H488.958z M412.537,277.527h-12.25v-74.116h12.249v74.116H412.537z M412.537,292.968v8.235
	h-12.25v-8.235H412.537z M412.537,316.644v40.622c-1.974-0.429-4.021-0.661-6.122-0.661c-2.103,0-4.151,0.233-6.127,0.662v-40.623
	H412.537z M412.537,179.735v8.235h-12.25v-8.235H412.537z M335.333,179.735v8.235h-12.104v-8.235H335.333z M335.333,203.411v74.116
	h-12.104v-74.116H335.333z M258.273,179.735v8.235h-12.391v-8.235H258.273z M258.273,203.411v74.116h-12.391v-74.116H258.273z
	 M180.927,179.735v8.235h-11.861v-8.235H180.927z M180.927,203.411v74.116h-11.861v-74.116H180.927z M104.112,277.527H91.873
	v-74.116h12.239V277.527z M104.112,292.968v8.235H91.873v-8.235H104.112z M104.112,316.644v40.622
	c-1.973-0.429-4.02-0.661-6.12-0.661s-4.145,0.232-6.119,0.66v-40.621H104.112z M104.112,179.735v8.235H91.873v-8.235H104.112z
	 M15.441,187.97v-8.235h11.478v8.235H15.441z M15.441,301.203v-8.235h11.478v8.235H15.441z M42.359,105.589h34.073v260.737
	c-2.315,2.611-4.164,5.639-5.417,8.962H42.359V105.589z M97.991,398.809c-7.379,0-13.382-6.003-13.382-13.382
	s6.003-13.382,13.382-13.382c7.379,0,13.382,6.003,13.382,13.382S105.37,398.809,97.991,398.809z M153.626,375.298h-28.653
	c-1.253-3.325-3.104-6.357-5.42-8.97V105.599h34.074v269.699H153.626z M169.066,301.203v-8.235h11.86v8.235H169.066z
	 M230.441,375.307h-34.075V105.608h34.075V375.307z M245.882,301.203v-8.235h12.391v8.235H245.882z M307.788,375.32h-34.075V105.621
	h34.075V375.32L307.788,375.32z M323.229,301.203v-8.235h12.104v8.235H323.229z M350.773,105.63h34.074v260.706
	c-2.32,2.619-4.173,5.66-5.425,8.993h-28.648V105.63H350.773z M406.415,398.809c-7.379,0-13.382-6.003-13.382-13.382
	s6.003-13.382,13.382-13.382c7.379,0,13.382,6.003,13.382,13.382S413.792,398.809,406.415,398.809z M462.05,375.339h-28.64
	c-1.253-3.34-3.109-6.386-5.434-9.009V105.64h34.074L462.05,375.339L462.05,375.339z M488.958,292.968v8.235h-11.467v-8.235H488.958
	z"/>
<rect x="51.671" y="122.056" width="15.441" height="236.759"/>
<rect x="128.869" y="122.066" width="15.441" height="236.759"/>
<rect x="205.682" y="144.033" width="15.441" height="214.802"/>
<rect x="283.03" y="122.087" width="15.441" height="236.759"/>
<rect x="360.089" y="122.107" width="15.441" height="236.759"/>
<rect x="437.293" y="122.118" width="15.441" height="180.451"/>
<rect x="437.293" y="321.088" width="15.441" height="15.441"/>
<g>
</g>
<g>
</g>
<g>
</g>
<g>
</g>
<g>
</g>
<g>
</g>
<g>
</g>
<g>
</g>
<g>
</g>
<g>
</g>
<g>
</g>
<g>
</g>
<g>
</g>
<g>
</g>
<g>
</g>
</svg>
