<?xml version="1.0" encoding="iso-8859-1"?>
<!-- Generator: Adobe Illustrator 19.0.0, SVG Export Plug-In . SVG Version: 6.00 Build 0)  -->
<svg version="1.1" id="Layer_1" xmlns="http://www.w3.org/2000/svg" xmlns:xlink="http://www.w3.org/1999/xlink" x="0px" y="0px"
	 viewBox="0 0 512 512" style="enable-background:new 0 0 512 512;" xml:space="preserve">
<path style="fill:#FF8564;" d="M470.155,316.407c-11.738-91.374-80.586-164.867-169.605-183.54V98.22h-89.102v34.646
	c-89.019,18.673-157.866,92.166-169.604,183.54H7.837v68.116h91.441l12.615,29.257H399.24l13.11-29.257h91.813v-68.116H470.155z"/>
<rect x="183.996" y="308.569" width="15.673" height="15.673"/>
<path d="M476.942,308.571c-14.234-89.004-80.856-160.945-168.556-181.964V90.384H203.612v36.222
	C115.913,147.625,49.29,219.565,35.058,308.57H0v83.789h94.122l12.615,29.257h297.578l13.11-29.257H512v-83.788H476.942z
	 M496.327,376.686h-89.051l-13.11,29.257H117.048l-12.615-29.257h-88.76v-52.441h26.172h6.895h116.443v-15.673H50.951
	c13.851-80.38,73.73-145.379,152.662-165.814v78.733h15.673V106.057h73.428v80.951h15.673v-44.251
	c81.804,21.179,143.15,90.223,153.996,174.649l0.879,6.838h33.064V376.686z"/>
<rect x="292.718" y="205.814" width="15.673" height="15.673"/>
<rect x="125.2" y="376.686" width="261.224" height="15.673"/>
<g>
</g>
<g>
</g>
<g>
</g>
<g>
</g>
<g>
</g>
<g>
</g>
<g>
</g>
<g>
</g>
<g>
</g>
<g>
</g>
<g>
</g>
<g>
</g>
<g>
</g>
<g>
</g>
<g>
</g>
</svg>
