<?xml version="1.0" encoding="iso-8859-1"?>
<!-- Generator: Adobe Illustrator 19.0.0, SVG Export Plug-In . SVG Version: 6.00 Build 0)  -->
<svg version="1.1" id="Layer_1" xmlns="http://www.w3.org/2000/svg" xmlns:xlink="http://www.w3.org/1999/xlink" x="0px" y="0px"
	 viewBox="0 0 512 512" style="enable-background:new 0 0 512 512;" xml:space="preserve">
<polygon style="fill:#FFC084;" points="432.049,240.932 256,113.098 79.951,240.932 62.699,217.173 256,76.81 449.301,217.173 "/>
<polygon style="fill:#FF8564;" points="103.316,223.967 103.316,437.036 408.685,437.036 408.685,223.967 256,113.098 "/>
<rect x="208.039" y="303.928" style="fill:#FFFFFF;" width="95.922" height="133.11"/>
<path d="M433.785,251.878l26.461-36.442L256,67.125L51.754,215.436l26.462,36.442l17.264-12.536v189.857H68.441v15.673h375.118
	v-15.673h-27.038V239.342L433.785,251.878z M73.645,218.909L256,86.495l182.355,132.415l-8.043,11.077L256,103.412L81.689,229.986
	L73.645,218.909z M400.848,429.199h-89.052v-28.414h-15.673v28.414h-80.244V311.763h80.244v36.255h15.673V296.09H200.205v133.11
	h-89.052V227.961L256,122.782l144.848,105.179V429.199z"/>
<rect y="429.201" width="15.673" height="15.673"/>
<rect x="33.959" y="429.201" width="15.673" height="15.673"/>
<rect x="461.845" y="429.201" width="15.673" height="15.673"/>
<rect x="496.327" y="429.201" width="15.673" height="15.673"/>
<rect x="296.124" y="366.298" width="15.673" height="15.673"/>
<g>
</g>
<g>
</g>
<g>
</g>
<g>
</g>
<g>
</g>
<g>
</g>
<g>
</g>
<g>
</g>
<g>
</g>
<g>
</g>
<g>
</g>
<g>
</g>
<g>
</g>
<g>
</g>
<g>
</g>
</svg>
