<svg id="Layer_1" data-name="Layer 1" xmlns="http://www.w3.org/2000/svg" viewBox="0 0 60 50.52"><defs><style>.cls-1{fill:#ffbc00;}</style></defs><polygon class="cls-1" points="52.13 17.68 52.16 37.86 30.3 50.52 8.41 37.92 8.38 17.68 0 17.68 8.37 12.65 8.39 12.65 30.23 0 52.13 12.65 60 17.68 52.13 17.68"/><path d="M24.39,25.8l.5.25,3.51,2s.41.29,1.06-.19,6.47-3.82,6.47-3.82.37-.16.38-.83,0-3.5,0-3.5,0-.37-.52-.64-3.61-1.92-3.61-1.92a1.2,1.2,0,0,0-1,0l-.51.26-6.17,3.42a.88.88,0,0,0-.52.72V25A.79.79,0,0,0,24.39,25.8Zm7.34-8.26,4,2.14-6.95,4.09-4.16-2.4Z" transform="translate(0 -4.32)"/><path d="M33.28,30.72l-4.46,2.67v4.25a1.22,1.22,0,0,0,.68-.28c.64-.47,6.47-3.81,6.47-3.81s.38-.17.38-.83V28.89l-.08.05Z" transform="translate(0 -4.32)"/><path d="M27.48,34.2l-2.37,1.43h0l-2.75,1.63-1,.58h0l-.78.47-4.17-2.41,4.08-2.19-.58-.36-3.65,2a.86.86,0,0,0-.52.71v3.48a.79.79,0,0,0,.45.77l.5.24,3.51,2s.41.3,1.05-.17,6.47-3.83,6.47-3.83.38-.17.38-.83V33.83l-.14.08Z" transform="translate(0 -4.32)"/><path d="M44.06,23.68c-.55-.26-3.43-1.83-3.58-1.91v.63l3.14,1.67.39.21-7,4.19v4.28a1.36,1.36,0,0,0,.68-.27c.65-.47,6.47-3.83,6.47-3.83s.38-.15.4-.81V24.32S44.64,24,44.06,23.68Z" transform="translate(0 -4.32)"/><path d="M29.42,32.65c1.32-.75,2.42-1.4,2.42-1.4a.64.64,0,0,0,.22-.2,1,1,0,0,0,.18-.63V26.51l-3.16,1.87h0l-1.72,1-2.59,1.53-.08,0-.57-.33-3.59-2.06,3.88-2.1-.59-.34L20.4,28a.87.87,0,0,0-.54.72v3.47a.84.84,0,0,0,.44.77l.16.06.35.19.27.16,3.24,1.84a.49.49,0,0,0,.2.08h0a1,1,0,0,0,.63-.13l.2-.12.1-.07.12-.07.33-.21.56-.33.64-.39.55-.33.91-.55.15-.07.12-.08Z" transform="translate(0 -4.32)"/><path d="M39.67,26.47l.08,0,.09-.06a1,1,0,0,0,.27-.73V22.2a.66.66,0,0,0-.38-.52.74.74,0,0,0-.13-.08c-.39-.17-1.9-1-2.81-1.48v.59l2.31,1.22.45.25-2.1,1.23-4.65,2.77V30.4a1.12,1.12,0,0,0,.68-.27c.2-.15,1-.63,1.92-1.18l.55-.33.75-.44L39,26.83Z" transform="translate(0 -4.32)"/></svg>