<?xml version="1.0" encoding="iso-8859-1"?>
<!-- Generator: Adobe Illustrator 19.0.0, SVG Export Plug-In . SVG Version: 6.00 Build 0)  -->
<svg version="1.1" id="Layer_1" xmlns="http://www.w3.org/2000/svg" xmlns:xlink="http://www.w3.org/1999/xlink" x="0px" y="0px"
	 viewBox="0 0 512 512" style="enable-background:new 0 0 512 512;" xml:space="preserve">
<g>
	<polyline style="fill:#FF8564;" points="225.125,186.814 225.125,141.288 286.874,141.288 286.874,186.814 	"/>
	<circle style="fill:#FF8564;" cx="256" cy="333.333" r="55.474"/>
</g>
<polygon style="fill:#FFC084;" points="398.335,333.335 113.665,333.335 194.252,186.814 317.748,186.814 "/>
<rect x="248.163" y="427.75" width="15.673" height="49.713"/>
<rect x="248.163" y="496.306" width="15.673" height="15.694"/>
<path d="M411.588,341.173l-89.207-162.195h-27.67v-45.526h-30.875V0h-15.673v133.451H217.29v45.526h-27.671l-89.207,162.195h92.786
	c3.874,31.219,30.552,55.468,62.804,55.468c32.251,0,58.928-24.249,62.803-55.468H411.588z M232.963,149.125h46.075v29.853h-46.075
	V149.125z M198.886,194.651h114.228l71.966,130.848H126.92L198.886,194.651z M256,380.968c-23.595,0-43.226-17.248-46.977-39.795
	h93.952C299.226,363.72,279.595,380.968,256,380.968z"/>
<rect x="302.467" y="415.297" transform="matrix(0.7071 0.7071 -0.7071 0.7071 395.0714 -107.5193)" width="49.712" height="15.673"/>
<rect x="355.922" y="451.741" transform="matrix(0.7071 0.7071 -0.7071 0.7071 431.5173 -122.6202)" width="15.705" height="15.673"/>
<rect x="176.819" y="398.264" transform="matrix(0.7071 0.7071 -0.7071 0.7071 353.2748 -6.6422)" width="15.673" height="49.712"/>
<rect x="140.403" y="451.745" transform="matrix(0.7071 0.7071 -0.7071 0.7071 368.3994 29.7904)" width="15.672" height="15.694"/>
<g>
</g>
<g>
</g>
<g>
</g>
<g>
</g>
<g>
</g>
<g>
</g>
<g>
</g>
<g>
</g>
<g>
</g>
<g>
</g>
<g>
</g>
<g>
</g>
<g>
</g>
<g>
</g>
<g>
</g>
</svg>
