<?xml version="1.0" encoding="iso-8859-1"?>
<!-- Generator: Adobe Illustrator 19.0.0, SVG Export Plug-In . SVG Version: 6.00 Build 0)  -->
<svg version="1.1" id="Layer_1" xmlns="http://www.w3.org/2000/svg" xmlns:xlink="http://www.w3.org/1999/xlink" x="0px" y="0px"
	 viewBox="0 0 512 512" style="enable-background:new 0 0 512 512;" xml:space="preserve">
<rect x="40.674" y="7.837" style="fill:#FFC084;" width="358.578" height="108.795"/>
<rect x="226.085" y="331.055" style="fill:#FF8564;" width="59.841" height="173.108"/>
<path d="M407.086,54.738V0H32.837v124.47h374.249V70.411h56.404v117.397L248.163,237.56v70.685h15.673v-58.22l215.326-49.752V54.738
	H407.086z M391.412,108.797H48.51V15.673h342.902V108.797z"/>
<path d="M218.244,512h75.513V323.222h-75.513V512z M278.083,338.896v157.431h-44.166v-36.658H256v-15.673h-22.083v-18.808H256
	v-15.673h-22.083v-18.286H256v-15.673h-22.083v-36.658L278.083,338.896L278.083,338.896z"/>
<rect x="62.694" y="54.397" width="280.033" height="15.673"/>
<rect x="361.535" y="54.397" width="15.673" height="15.673"/>
<g>
</g>
<g>
</g>
<g>
</g>
<g>
</g>
<g>
</g>
<g>
</g>
<g>
</g>
<g>
</g>
<g>
</g>
<g>
</g>
<g>
</g>
<g>
</g>
<g>
</g>
<g>
</g>
<g>
</g>
</svg>
