<?xml version="1.0" encoding="iso-8859-1"?>
<!-- Generator: Adobe Illustrator 19.0.0, SVG Export Plug-In . SVG Version: 6.00 Build 0)  -->
<svg version="1.1" id="Layer_1" xmlns="http://www.w3.org/2000/svg" xmlns:xlink="http://www.w3.org/1999/xlink" x="0px" y="0px"
	 viewBox="0 0 512 512" style="enable-background:new 0 0 512 512;" xml:space="preserve">
<path style="fill:#FF8564;" d="M159.427,101.484v109.163l77.764,22.366l-10.211,240.876c-0.699,16.509,12.495,30.275,29.019,30.275
	l0,0c16.524,0,29.718-13.766,29.019-30.275l-10.211-240.876l77.764-22.367V101.484"/>
<rect x="159.431" y="101.48" style="fill:#FFFFFF;" width="193.149" height="52.245"/>
<rect x="159.431" y="7.837" style="fill:#FFFFFF;" width="193.149" height="93.644"/>
<rect x="159.431" y="7.837" style="fill:#FFC084;" width="193.139" height="46.822"/>
<rect x="215.97" y="22.988" width="15.673" height="52.746"/>
<rect x="313.469" y="145.889" width="15.673" height="15.673"/>
<path d="M151.591,0v101.484v7.837v107.224l77.511,22.295l-9.948,234.718c-0.429,10.138,3.201,19.756,10.222,27.082
	C236.396,507.966,245.852,512,256,512c10.148,0,19.604-4.034,26.625-11.361c7.023-7.326,10.652-16.944,10.222-27.082l-9.948-234.718
	l77.51-22.295V109.32v-7.837V0H151.591z M167.264,15.673h16.518v60.058h15.673V15.673h48.708v60.058h15.673V15.673h16.518v60.058
	h15.673V15.673h16.518v60.058h15.673V15.673h16.518v77.973H167.264V15.673z M344.736,204.745l-78.018,22.44l10.471,247.036
	c0.247,5.829-1.841,11.36-5.879,15.573c-4.037,4.212-9.474,6.533-15.31,6.533s-11.272-2.321-15.31-6.533
	c-4.037-4.213-6.125-9.744-5.879-15.573l10.471-247.036l-78.018-22.44v-43.179h127.92v-15.673h-127.92V109.32h177.472
	L344.736,204.745L344.736,204.745z"/>
<circle cx="256" cy="463.412" r="9.927"/>
<g>
</g>
<g>
</g>
<g>
</g>
<g>
</g>
<g>
</g>
<g>
</g>
<g>
</g>
<g>
</g>
<g>
</g>
<g>
</g>
<g>
</g>
<g>
</g>
<g>
</g>
<g>
</g>
<g>
</g>
</svg>
