<?xml version="1.0" encoding="iso-8859-1"?>
<!-- Generator: Adobe Illustrator 19.0.0, SVG Export Plug-In . SVG Version: 6.00 Build 0)  -->
<svg version="1.1" id="Layer_1" xmlns="http://www.w3.org/2000/svg" xmlns:xlink="http://www.w3.org/1999/xlink" x="0px" y="0px"
	 viewBox="0 0 512 512" style="enable-background:new 0 0 512 512;" xml:space="preserve">
<rect x="150.249" y="7.853" style="fill:#FFC084;" width="206.266" height="206.266"/>
<path style="fill:#FF8564;" d="M318.647,360.695v-57.937h-130.53v57.937c22.663,8.251,38.848,29.985,38.848,55.501h52.833
	C279.799,390.68,295.984,368.947,318.647,360.695z"/>
<circle style="fill:#FFFFFF;" cx="253.382" cy="110.986" r="69.439"/>
<rect x="213.658" y="324.434" width="79.445" height="15.706"/>
<path d="M330.672,110.986c0-42.617-34.673-77.29-77.29-77.29s-77.29,34.673-77.29,77.29s34.673,77.29,77.29,77.29
	C296,188.276,330.672,153.603,330.672,110.986z M191.798,110.986c0-33.957,27.627-61.584,61.584-61.584s61.584,27.627,61.584,61.584
	s-27.627,61.584-61.584,61.584S191.798,144.943,191.798,110.986z"/>
<path d="M261.235,424.049h26.417v-7.853c0-21.448,13.536-40.787,33.682-48.122l5.166-1.88v-71.287h-31.079v-53.528h-15.706v53.528
	h-52.668v-53.528h-15.706v53.528h-31.079v71.287l5.166,1.88c20.147,7.334,33.682,26.673,33.682,48.122v7.853h26.417V512h89.524
	v-15.706h-73.816V424.049z M195.969,355.447v-44.835h114.825v44.835c-21.077,9.75-35.649,29.924-38.383,52.896h-38.059
	C231.62,385.372,217.046,365.197,195.969,355.447z"/>
<rect x="353.898" y="496.294" width="15.706" height="15.706"/>
<rect x="142.397" y="102.871" width="15.706" height="15.706"/>
<polygon points="364.368,0 142.397,0 142.397,84.548 158.102,84.548 158.102,15.706 348.663,15.706 348.663,206.266 
	158.102,206.266 158.102,137.423 142.397,137.423 142.397,221.971 364.368,221.971 "/>
<circle cx="224.589" cy="110.986" r="11.308"/>
<circle cx="282.176" cy="110.986" r="11.308"/>
<g>
</g>
<g>
</g>
<g>
</g>
<g>
</g>
<g>
</g>
<g>
</g>
<g>
</g>
<g>
</g>
<g>
</g>
<g>
</g>
<g>
</g>
<g>
</g>
<g>
</g>
<g>
</g>
<g>
</g>
</svg>
