<?xml version="1.0" encoding="iso-8859-1"?>
<!-- Generator: Adobe Illustrator 19.0.0, SVG Export Plug-In . SVG Version: 6.00 Build 0)  -->
<svg version="1.1" id="Layer_1" xmlns="http://www.w3.org/2000/svg" xmlns:xlink="http://www.w3.org/1999/xlink" x="0px" y="0px"
	 viewBox="0 0 511.999 511.999" style="enable-background:new 0 0 511.999 511.999;" xml:space="preserve">
<polygon style="fill:#FF8564;" points="143.067,198.243 15.074,198.243 31.724,222.559 31.724,290.203 15.074,313.759 
	94.539,313.759 143.067,265.227 "/>
<g>
	<rect x="60.859" y="227.358" style="fill:#FFFFFF;" width="24.974" height="57.29"/>
	<polygon style="fill:#FFFFFF;" points="504.195,260.814 462.643,246.494 425.911,273.302 382.757,258.982 346.025,285.79 
		302.866,271.469 266.132,298.278 222.97,283.957 186.232,310.766 143.067,296.447 143.067,198.243 504.195,198.243 	"/>
</g>
<path d="M53.055,219.551v72.899H93.64v-72.899L53.055,219.551L53.055,219.551z M78.029,276.84h-9.364v-41.678h9.364V276.84z"/>
<rect x="228.419" y="190.435" width="15.61" height="15.61"/>
<path d="M262.757,190.438v15.61H496.39v43.82l-35.057-12.08l-36.778,26.841l-43.154-14.321l-36.732,26.808l-43.159-14.321
	l-36.734,26.809l-43.16-14.321l-36.739,26.81l-34.005-11.281v-84.765h59.331v-15.61h-67.136h-7.805H0.271l23.648,34.536v62.749
	L0,321.564h97.772l37.488-37.493v18.01l52.327,17.359l36.738-26.81l43.161,14.321l36.734-26.809l43.159,14.321l36.731-26.808
	l43.155,14.321l36.685-26.775l48.048,16.558v-81.321L262.757,190.438L262.757,190.438z M91.305,305.954H30.15l9.38-13.271v-72.54
	l-9.65-14.095h105.383v55.946L91.305,305.954z"/>
<g>
</g>
<g>
</g>
<g>
</g>
<g>
</g>
<g>
</g>
<g>
</g>
<g>
</g>
<g>
</g>
<g>
</g>
<g>
</g>
<g>
</g>
<g>
</g>
<g>
</g>
<g>
</g>
<g>
</g>
</svg>
