<?xml version="1.0" encoding="iso-8859-1"?>
<!-- Generator: Adobe Illustrator 19.0.0, SVG Export Plug-In . SVG Version: 6.00 Build 0)  -->
<svg version="1.1" id="Layer_1" xmlns="http://www.w3.org/2000/svg" xmlns:xlink="http://www.w3.org/1999/xlink" x="0px" y="0px"
	 viewBox="0 0 512 512" style="enable-background:new 0 0 512 512;" xml:space="preserve">
<rect x="170.994" y="123.047" style="fill:#FFC084;" width="170.013" height="335.772"/>
<polyline style="fill:#FF8564;" points="189.263,123.047 189.263,83.422 322.738,83.422 322.738,123.047 "/>
<polyline style="fill:#FFFFFF;" points="223.675,83.422 235.145,43.796 276.856,43.796 288.326,83.422 "/>
<rect x="170.994" y="458.819" style="fill:#FF8564;" width="170.013" height="45.36"/>
<g>
	<polyline style="fill:#FFFFFF;" points="204.905,420.236 204.905,155.373 238.273,155.373 238.273,420.236 	"/>
	<polyline style="fill:#FFFFFF;" points="273.728,420.236 273.728,155.373 307.096,155.373 307.096,420.236 	"/>
</g>
<path d="M197.084,91.242h117.833v16.163h15.642V75.601h-36.354l-11.47-39.625h-18.913V0H248.18v35.976h-18.913l-11.47,39.625
	h-36.354v31.804h15.642V91.242z M241.023,51.617h29.956l6.943,23.984h-43.84L241.023,51.617z"/>
<rect x="214.029" y="95.413" width="15.642" height="15.642"/>
<rect x="247.919" y="95.413" width="15.642" height="15.642"/>
<rect x="282.33" y="95.413" width="15.642" height="15.642"/>
<path d="M163.17,115.226V512h185.66V115.226H163.17z M333.188,496.358H178.812V466.64h105.865v-15.642H178.812v-320.13h154.377
	V496.358z"/>
<polygon points="212.726,163.193 230.453,163.193 230.453,420.236 246.094,420.236 246.094,147.552 197.084,147.552 
	197.084,420.236 212.726,420.236 "/>
<polygon points="281.548,163.193 299.275,163.193 299.275,420.236 314.917,420.236 314.917,147.552 265.907,147.552 
	265.907,420.236 281.548,420.236 "/>
<rect x="302.925" y="450.998" width="15.642" height="15.642"/>
<g>
</g>
<g>
</g>
<g>
</g>
<g>
</g>
<g>
</g>
<g>
</g>
<g>
</g>
<g>
</g>
<g>
</g>
<g>
</g>
<g>
</g>
<g>
</g>
<g>
</g>
<g>
</g>
<g>
</g>
</svg>
