<?xml version="1.0" encoding="iso-8859-1"?>
<!-- Generator: Adobe Illustrator 19.0.0, SVG Export Plug-In . SVG Version: 6.00 Build 0)  -->
<svg version="1.1" id="Layer_1" xmlns="http://www.w3.org/2000/svg" xmlns:xlink="http://www.w3.org/1999/xlink" x="0px" y="0px"
	 viewBox="0 0 512 512" style="enable-background:new 0 0 512 512;" xml:space="preserve">
<polygon style="fill:#FFFFFF;" points="440.57,7.821 71.43,7.821 126.91,215.332 385.09,215.332 "/>
<path style="fill:#FF8564;" d="M420.236,215.332H91.764v63.609h132.432l-17.049,171.281c-2.876,28.893,19.817,53.957,48.853,53.957
	l0,0c29.037,0,51.729-25.064,48.853-53.957l-17.047-171.281h132.432V215.332z"/>
<circle cx="256" cy="449.434" r="9.906"/>
<rect x="149.637" width="15.642" height="15.642"/>
<path d="M450.757,0H184.049v15.642h246.335l-51.298,191.87h-16.964l45.881-171.604l-15.111-4.041l-46.961,175.645H132.915
	L81.617,15.642h49.772V0H61.243l55.481,207.511H83.943v79.251h131.614l-16.193,162.686c-1.588,15.966,3.676,31.944,14.444,43.838
	C224.577,505.178,239.956,512,256,512s31.423-6.822,42.192-18.715c10.769-11.894,16.033-27.872,14.444-43.838l-16.193-162.686
	h131.614v-79.251h-32.781L450.757,0z M412.415,223.153v16.684H287.283v15.642h125.132v15.642H279.166l17.904,179.877
	c1.152,11.578-2.665,23.165-10.475,31.79c-7.808,8.625-18.961,13.572-30.596,13.572s-22.788-4.947-30.596-13.572
	c-7.809-8.626-11.627-20.213-10.475-31.79l17.904-179.877H99.585v-47.967h21.32h270.189H412.415z"/>
<rect x="242.746" y="239.837" width="20.244" height="15.642"/>
<g>
</g>
<g>
</g>
<g>
</g>
<g>
</g>
<g>
</g>
<g>
</g>
<g>
</g>
<g>
</g>
<g>
</g>
<g>
</g>
<g>
</g>
<g>
</g>
<g>
</g>
<g>
</g>
<g>
</g>
</svg>
