<?xml version="1.0" encoding="iso-8859-1"?>
<!-- Generator: Adobe Illustrator 19.0.0, SVG Export Plug-In . SVG Version: 6.00 Build 0)  -->
<svg version="1.1" id="Layer_1" xmlns="http://www.w3.org/2000/svg" xmlns:xlink="http://www.w3.org/1999/xlink" x="0px" y="0px"
	 viewBox="0 0 511.998 511.998" style="enable-background:new 0 0 511.998 511.998;" xml:space="preserve">
<g>
	<polygon style="fill:#FFC084;" points="15.637,255.999 113.649,199.041 212.3,255.999 114.289,312.956 	"/>
	<polygon style="fill:#FFC084;" points="299.699,255.998 397.711,199.04 496.362,255.997 398.351,312.954 	"/>
</g>
<g>
	<polygon style="fill:#FF8564;" points="158.131,338.269 256.143,281.311 354.794,338.268 256.783,395.225 	"/>
	<polygon style="fill:#FF8564;" points="157.205,173.729 255.217,116.772 353.868,173.728 255.857,230.686 	"/>
</g>
<path d="M114.302,322.013L0,256.022l113.635-66.038l114.303,65.991L114.302,322.013z M31.275,255.977l83.001,47.921l82.386-47.878
	l-83.001-47.921L31.275,255.977z"/>
<path d="M256.797,404.283l-114.302-65.992l113.635-66.037l114.303,65.992L256.797,404.283z M173.769,338.246l83.001,47.921
	l82.386-47.878l-83.001-47.921L173.769,338.246z"/>
<path d="M255.87,239.743l-114.302-65.991l113.635-66.037l114.303,65.991L255.87,239.743z M172.844,173.706l83.001,47.921
	l82.386-47.877l-83.001-47.921L172.844,173.706z"/>
<path d="M398.364,322.012L284.061,256.02l113.635-66.037l114.302,65.991L398.364,322.012z M315.338,255.976l83.001,47.921
	l82.386-47.877l-83.001-47.921L315.338,255.976z"/>
<g>
</g>
<g>
</g>
<g>
</g>
<g>
</g>
<g>
</g>
<g>
</g>
<g>
</g>
<g>
</g>
<g>
</g>
<g>
</g>
<g>
</g>
<g>
</g>
<g>
</g>
<g>
</g>
<g>
</g>
</svg>
