<?xml version="1.0" encoding="iso-8859-1"?>
<!-- Generator: Adobe Illustrator 19.0.0, SVG Export Plug-In . SVG Version: 6.00 Build 0)  -->
<svg version="1.1" id="Layer_1" xmlns="http://www.w3.org/2000/svg" xmlns:xlink="http://www.w3.org/1999/xlink" x="0px" y="0px"
	 viewBox="0 0 512.001 512.001" style="enable-background:new 0 0 512.001 512.001;" xml:space="preserve">
<path style="fill:#FF8564;" d="M244.483,236.506h-96.854c-7.862,0-12.919-8.343-9.283-15.314L246.718,13.48
	c3.915-7.503,14.651-7.503,18.566,0l108.371,207.713c3.637,6.971-1.421,15.314-9.283,15.314h-96.854"/>
<path style="fill:#FFC084;" d="M229.825,504.147L229.825,504.147c-11.566,0-20.941-9.375-20.941-20.941V369.08
	c0-11.566,9.375-20.941,20.941-20.941l0,0c11.566,0,20.941,9.375,20.941,20.941v114.127
	C250.765,494.772,241.39,504.147,229.825,504.147z"/>
<path d="M380.618,217.56L272.245,9.846C269.077,3.772,262.852,0,256.001,0s-13.076,3.772-16.245,9.846L131.384,217.559
	c-2.989,5.729-2.774,12.448,0.576,17.974c3.349,5.525,9.208,8.825,15.669,8.825h100.52v38.976l-26.176,11.517v46.532
	c-12.07,3.428-20.941,14.542-20.941,27.696v114.127c0,15.876,12.916,28.793,28.793,28.793s28.793-12.917,28.793-28.793V369.081
	c0-13.154-8.87-24.268-20.941-27.696V305.1l26.176-11.517V184.802h-15.706v43.852H147.629c-1.283,0-1.953-0.791-2.239-1.261
	c-0.286-0.471-0.676-1.43-0.083-2.567L253.68,17.113c0.639-1.224,1.728-1.407,2.32-1.407c0.593,0,1.682,0.183,2.32,1.407
	l108.372,207.713c0.594,1.137,0.203,2.096-0.083,2.567c-0.285,0.47-0.956,1.261-2.239,1.261h-85.336v15.706h85.336
	c6.461,0,12.319-3.299,15.669-8.825C383.391,230.007,383.607,223.289,380.618,217.56z M242.913,369.08v114.127
	c0,7.217-5.871,13.088-13.088,13.088c-7.217,0-13.088-5.871-13.088-13.088V369.08c0-7.217,5.871-13.088,13.088-13.088
	C237.042,355.992,242.913,361.863,242.913,369.08z"/>
<rect x="248.148" y="150.773" width="15.706" height="15.706"/>
<g>
</g>
<g>
</g>
<g>
</g>
<g>
</g>
<g>
</g>
<g>
</g>
<g>
</g>
<g>
</g>
<g>
</g>
<g>
</g>
<g>
</g>
<g>
</g>
<g>
</g>
<g>
</g>
<g>
</g>
</svg>
