<?xml version="1.0" encoding="iso-8859-1"?>
<!-- Generator: Adobe Illustrator 19.0.0, SVG Export Plug-In . SVG Version: 6.00 Build 0)  -->
<svg version="1.1" id="Layer_1" xmlns="http://www.w3.org/2000/svg" xmlns:xlink="http://www.w3.org/1999/xlink" x="0px" y="0px"
	 viewBox="0 0 512 512" style="enable-background:new 0 0 512 512;" xml:space="preserve">
<polygon style="fill:#FF8564;" points="504.163,263.018 504.163,357.058 473.015,357.058 461.845,339.295 396.016,339.295 
	384.846,357.058 220.15,357.058 208.98,339.295 62.694,339.295 51.524,357.058 7.837,357.058 7.837,308.993 357.355,308.993 
	357.355,194.054 458.71,194.054 "/>
<polygon style="fill:#FFFFFF;" points="458.71,194.054 410.645,194.054 410.645,263.018 504.163,263.018 "/>
<g>
	<rect x="262.269" y="337.209" style="fill:#FFC084;" width="80.457" height="39.706"/>
	<rect x="22.988" y="108.68" style="fill:#FFC084;" width="307.2" height="173.453"/>
</g>
<polygon style="fill:#FFFFFF;" points="218.425,169.585 218.425,248.297 134.74,248.297 134.74,169.595 176.588,142.512 "/>
<g>
	<circle style="fill:#FFC084;" cx="428.931" cy="382.422" r="20.898"/>
	<circle style="fill:#FFC084;" cx="179.722" cy="382.422" r="20.898"/>
	<circle style="fill:#FFC084;" cx="91.951" cy="382.422" r="20.898"/>
</g>
<path d="M512,260.668l-49.069-74.45H349.518v114.939H0v63.739h37.346l-4.276,6.802l13.271,8.338l20.682-32.904H204.65l20.682,32.904
	l13.271-8.338l-4.275-6.8h20.104v19.851h96.131v-19.851h20.104l-4.275,6.8l13.271,8.338l20.682-32.904h57.17l20.682,32.904
	l13.271-8.338l-4.276-6.802H512V260.668z M489.612,255.181h-71.13v-53.29h36.008L489.612,255.181z M334.89,369.075h-64.784v-24.033
	h64.784V369.075z M477.341,349.222l-11.166-17.763h-74.488l-11.167,17.765h-29.957v-19.855h-96.131v19.855h-29.956l-11.167-17.765
	H58.364l-11.166,17.763H15.673V316.83h349.518V201.891h37.616v68.963h93.518v18.808h-19.331v15.673h19.331v43.886H477.341z"/>
<path d="M126.908,183.993v72.14h99.356v-72.142l9.513,6.155l8.514-13.159l-67.704-43.809l-67.702,43.808l8.513,13.162
	L126.908,183.993z M176.588,151.847l34.003,22.001v66.61h-68.009V173.85L176.588,151.847z"/>
<path d="M338.024,100.841H15.151v189.127h322.873V100.841z M322.351,274.294H30.824v-157.78h291.527V274.294z"/>
<path d="M428.931,353.69c-15.844,0-28.735,12.891-28.735,28.735s12.891,28.735,28.735,28.735s28.735-12.891,28.735-28.735
	S444.774,353.69,428.931,353.69z M428.931,395.486c-7.202,0-13.061-5.859-13.061-13.061s5.859-13.061,13.061-13.061
	s13.061,5.859,13.061,13.061S436.133,395.486,428.931,395.486z"/>
<path d="M179.722,353.69c-15.845,0-28.735,12.891-28.735,28.735s12.89,28.735,28.735,28.735s28.735-12.891,28.735-28.735
	S195.567,353.69,179.722,353.69z M179.722,395.486c-7.202,0-13.061-5.859-13.061-13.061s5.859-13.061,13.061-13.061
	s13.061,5.859,13.061,13.061S186.925,395.486,179.722,395.486z"/>
<path d="M91.951,353.69c-15.845,0-28.735,12.891-28.735,28.735s12.89,28.735,28.735,28.735s28.735-12.891,28.735-28.735
	S107.796,353.69,91.951,353.69z M91.951,395.486c-7.202,0-13.061-5.859-13.061-13.061s5.859-13.061,13.061-13.061
	c7.202,0,13.061,5.859,13.061,13.061S99.153,395.486,91.951,395.486z"/>
<g>
</g>
<g>
</g>
<g>
</g>
<g>
</g>
<g>
</g>
<g>
</g>
<g>
</g>
<g>
</g>
<g>
</g>
<g>
</g>
<g>
</g>
<g>
</g>
<g>
</g>
<g>
</g>
<g>
</g>
</svg>
