<?xml version="1.0" encoding="iso-8859-1"?>
<!-- Generator: Adobe Illustrator 19.0.0, SVG Export Plug-In . SVG Version: 6.00 Build 0)  -->
<svg version="1.1" id="Layer_1" xmlns="http://www.w3.org/2000/svg" xmlns:xlink="http://www.w3.org/1999/xlink" x="0px" y="0px"
	 viewBox="0 0 512 512" style="enable-background:new 0 0 512 512;" xml:space="preserve">
<path style="fill:#FFC084;" d="M404.84,504.167H65.38V49.615c0-23.073,18.707-41.78,41.78-41.78h297.68
	c23.073,0,41.78,18.707,41.78,41.78c0,11.542-4.679,21.987-12.241,29.538c-7.562,7.562-18.007,12.241-29.538,12.241V504.167z"/>
<path style="fill:#FF8564;" d="M404.84,504.167H65.38V49.615c0,23.073,18.707,41.78,41.78,41.78h297.68V504.167z"/>
<circle style="fill:#FFFFFF;" cx="107.164" cy="49.613" r="41.78"/>
<path d="M454.453,49.613C454.453,22.257,432.196,0,404.84,0H107.16C79.804,0,57.547,22.257,57.547,49.613V512h355.127V113.95
	h-15.667v101.838h-69.198v-67.892h-15.667v33.424h-69.198V99.227H404.84C432.196,99.227,454.453,76.97,454.453,49.613z
	 M438.786,49.613c0,18.718-15.229,33.946-33.946,33.946H143.292c8.35-8.882,13.48-20.823,13.48-33.946s-5.132-25.064-13.48-33.946
	h261.547C423.557,15.667,438.786,30.895,438.786,49.613z M312.141,496.333h-69.198v-58.07h69.198V496.333z M227.276,376.639h-69.198
	V254.434h69.198V376.639z M142.412,411.107H73.214V300.391h69.198V411.107z M73.214,162.519h69.198v122.205H73.214
	C73.214,284.724,73.214,162.519,73.214,162.519z M142.412,146.851H73.214V85.746c8.881,8.35,20.822,13.48,33.946,13.48h35.252
	L142.412,146.851L142.412,146.851z M107.16,15.667c18.717,0,33.946,15.228,33.946,33.946s-15.229,33.946-33.946,33.946
	S73.214,68.332,73.214,49.613S88.442,15.667,107.16,15.667z M73.214,426.775h69.198v20.368h15.667v-54.836h69.198v104.027H73.214
	C73.214,496.334,73.214,426.775,73.214,426.775z M327.809,496.333V392.306h69.198v104.027H327.809z M397.006,231.455v145.184
	h-69.198V231.455L397.006,231.455L397.006,231.455z M312.141,196.987v225.61h-69.198v-225.61L312.141,196.987L312.141,196.987z
	 M227.276,238.766h-69.198V99.227h69.198V238.766z"/>
<rect x="312.146" y="113.954" width="15.667" height="15.667"/>
<rect x="142.416" y="465.947" width="15.667" height="15.667"/>
<g>
</g>
<g>
</g>
<g>
</g>
<g>
</g>
<g>
</g>
<g>
</g>
<g>
</g>
<g>
</g>
<g>
</g>
<g>
</g>
<g>
</g>
<g>
</g>
<g>
</g>
<g>
</g>
<g>
</g>
</svg>
